<mxfile host="app.diagrams.net" modified="2021-02-12T22:23:18.312Z" agent="5.0 (Windows)" etag="chHyd8X8_D9YieSSB3zG" version="14.3.1" type="github">
  <diagram id="AM-ATfHUJHjZ6vd03uJr" name="Page-1">
    <mxGraphModel dx="2062" dy="763" grid="1" gridSize="10" guides="1" tooltips="1" connect="1" arrows="1" fold="1" page="1" pageScale="1" pageWidth="827" pageHeight="1169" math="0" shadow="0">
      <root>
        <mxCell id="0" />
        <mxCell id="1" parent="0" />
        <mxCell id="CFV8WFNX2Ne3uKHrz3DQ-2" value="&lt;div&gt;Kunden&lt;/div&gt;&lt;div&gt;Controller&lt;br&gt;&lt;/div&gt;" style="rounded=0;whiteSpace=wrap;html=1;" parent="1" vertex="1">
          <mxGeometry x="80" y="200" width="120" height="60" as="geometry" />
        </mxCell>
        <mxCell id="CFV8WFNX2Ne3uKHrz3DQ-3" value="Input Port Kunde" style="rounded=0;whiteSpace=wrap;html=1;rotation=-45;" parent="1" vertex="1">
          <mxGeometry x="210" y="250" width="120" height="30" as="geometry" />
        </mxCell>
        <mxCell id="CFV8WFNX2Ne3uKHrz3DQ-5" value="" style="endArrow=classic;html=1;exitX=1;exitY=0.5;exitDx=0;exitDy=0;entryX=0.5;entryY=0;entryDx=0;entryDy=0;" parent="1" source="CFV8WFNX2Ne3uKHrz3DQ-2" target="CFV8WFNX2Ne3uKHrz3DQ-3" edge="1">
          <mxGeometry width="50" height="50" relative="1" as="geometry">
            <mxPoint x="390" y="380" as="sourcePoint" />
            <mxPoint x="440" y="330" as="targetPoint" />
          </mxGeometry>
        </mxCell>
        <mxCell id="CFV8WFNX2Ne3uKHrz3DQ-16" style="edgeStyle=orthogonalEdgeStyle;rounded=0;orthogonalLoop=1;jettySize=auto;html=1;entryX=0.5;entryY=0;entryDx=0;entryDy=0;" parent="1" source="CFV8WFNX2Ne3uKHrz3DQ-6" target="CFV8WFNX2Ne3uKHrz3DQ-8" edge="1">
          <mxGeometry relative="1" as="geometry" />
        </mxCell>
        <mxCell id="CFV8WFNX2Ne3uKHrz3DQ-6" value="Kundendaten Verwaltung" style="rounded=0;whiteSpace=wrap;html=1;" parent="1" vertex="1">
          <mxGeometry x="320" y="280" width="160" height="40" as="geometry" />
        </mxCell>
        <mxCell id="CFV8WFNX2Ne3uKHrz3DQ-8" value="Kunde" style="rounded=0;whiteSpace=wrap;html=1;" parent="1" vertex="1">
          <mxGeometry x="320" y="360" width="160" height="40" as="geometry" />
        </mxCell>
        <mxCell id="CFV8WFNX2Ne3uKHrz3DQ-9" value="Output Port Persistenz" style="rounded=0;whiteSpace=wrap;html=1;rotation=48;" parent="1" vertex="1">
          <mxGeometry x="490" y="250" width="120" height="30" as="geometry" />
        </mxCell>
        <mxCell id="CFV8WFNX2Ne3uKHrz3DQ-10" value="&lt;div&gt;Persistenz&lt;/div&gt;&lt;div&gt;Kundendaten&lt;/div&gt;" style="rounded=0;whiteSpace=wrap;html=1;" parent="1" vertex="1">
          <mxGeometry x="640" y="200" width="120" height="60" as="geometry" />
        </mxCell>
        <mxCell id="CFV8WFNX2Ne3uKHrz3DQ-11" value="" style="endArrow=classic;html=1;entryX=0.5;entryY=0;entryDx=0;entryDy=0;exitX=0;exitY=0.5;exitDx=0;exitDy=0;" parent="1" source="CFV8WFNX2Ne3uKHrz3DQ-10" target="CFV8WFNX2Ne3uKHrz3DQ-9" edge="1">
          <mxGeometry width="50" height="50" relative="1" as="geometry">
            <mxPoint x="390" y="380" as="sourcePoint" />
            <mxPoint x="440" y="330" as="targetPoint" />
          </mxGeometry>
        </mxCell>
        <mxCell id="CFV8WFNX2Ne3uKHrz3DQ-13" value="" style="endArrow=classic;html=1;exitX=0;exitY=0.5;exitDx=0;exitDy=0;" parent="1" source="CFV8WFNX2Ne3uKHrz3DQ-6" target="CFV8WFNX2Ne3uKHrz3DQ-3" edge="1">
          <mxGeometry width="50" height="50" relative="1" as="geometry">
            <mxPoint x="390" y="380" as="sourcePoint" />
            <mxPoint x="440" y="330" as="targetPoint" />
          </mxGeometry>
        </mxCell>
        <mxCell id="CFV8WFNX2Ne3uKHrz3DQ-15" value="" style="endArrow=classic;html=1;entryX=0.5;entryY=1;entryDx=0;entryDy=0;exitX=1;exitY=0.5;exitDx=0;exitDy=0;" parent="1" source="CFV8WFNX2Ne3uKHrz3DQ-6" target="CFV8WFNX2Ne3uKHrz3DQ-9" edge="1">
          <mxGeometry width="50" height="50" relative="1" as="geometry">
            <mxPoint x="390" y="380" as="sourcePoint" />
            <mxPoint x="440" y="330" as="targetPoint" />
          </mxGeometry>
        </mxCell>
      </root>
    </mxGraphModel>
  </diagram>
</mxfile>
